<mxfile host="65bd71144e">
    <diagram id="PTfFwQov0GSMlPafJXad" name="Página-1">
        <mxGraphModel dx="1045" dy="672" grid="0" gridSize="10" guides="1" tooltips="1" connect="1" arrows="1" fold="1" page="1" pageScale="1" pageWidth="827" pageHeight="1169" background="#ffffff" math="0" shadow="0">
            <root>
                <mxCell id="0"/>
                <mxCell id="1" parent="0"/>
                <mxCell id="18" style="edgeStyle=none;html=1;rounded=1;sketch=1;curveFitting=1;jiggle=2;strokeColor=#000033;" edge="1" parent="1" source="2" target="4">
                    <mxGeometry relative="1" as="geometry"/>
                </mxCell>
                <mxCell id="19" style="edgeStyle=none;html=1;rounded=1;sketch=1;curveFitting=1;jiggle=2;strokeColor=#000033;" edge="1" parent="1" source="2" target="5">
                    <mxGeometry relative="1" as="geometry"/>
                </mxCell>
                <mxCell id="2" value="BODY" style="rounded=1;whiteSpace=wrap;html=1;sketch=1;curveFitting=1;jiggle=2;fillColor=#FFFFFF;fontColor=#000033;strokeColor=#000033;" vertex="1" parent="1">
                    <mxGeometry x="243" y="61" width="120" height="60" as="geometry"/>
                </mxCell>
                <mxCell id="4" value="H2" style="ellipse;whiteSpace=wrap;html=1;aspect=fixed;rounded=1;sketch=1;curveFitting=1;jiggle=2;fillColor=#FFFFFF;strokeColor=#000033;fontColor=#000033;" vertex="1" parent="1">
                    <mxGeometry x="173" y="160" width="80" height="80" as="geometry"/>
                </mxCell>
                <mxCell id="20" style="edgeStyle=none;html=1;rounded=1;sketch=1;curveFitting=1;jiggle=2;strokeColor=#000033;" edge="1" parent="1" source="5" target="6">
                    <mxGeometry relative="1" as="geometry"/>
                </mxCell>
                <mxCell id="21" style="edgeStyle=none;html=1;rounded=1;sketch=1;curveFitting=1;jiggle=2;strokeColor=#000033;" edge="1" parent="1" source="5" target="7">
                    <mxGeometry relative="1" as="geometry"/>
                </mxCell>
                <mxCell id="22" style="edgeStyle=none;html=1;rounded=1;sketch=1;curveFitting=1;jiggle=2;strokeColor=#000033;" edge="1" parent="1" source="5" target="8">
                    <mxGeometry relative="1" as="geometry"/>
                </mxCell>
                <mxCell id="23" style="edgeStyle=none;html=1;rounded=1;sketch=1;curveFitting=1;jiggle=2;strokeColor=#000033;" edge="1" parent="1" source="5" target="9">
                    <mxGeometry relative="1" as="geometry"/>
                </mxCell>
                <mxCell id="5" value="dl" style="ellipse;whiteSpace=wrap;html=1;aspect=fixed;rounded=1;sketch=1;curveFitting=1;jiggle=2;fillColor=#FFFFFF;strokeColor=#000033;fontColor=#000033;" vertex="1" parent="1">
                    <mxGeometry x="414" y="160" width="80" height="80" as="geometry"/>
                </mxCell>
                <mxCell id="11" style="edgeStyle=none;html=1;rounded=1;sketch=1;curveFitting=1;jiggle=2;strokeColor=#000033;" edge="1" parent="1" source="6" target="10">
                    <mxGeometry relative="1" as="geometry"/>
                </mxCell>
                <mxCell id="6" value="dt" style="ellipse;whiteSpace=wrap;html=1;aspect=fixed;rounded=1;sketch=1;curveFitting=1;jiggle=2;fillColor=#FFFFFF;strokeColor=#000033;fontColor=#000033;" vertex="1" parent="1">
                    <mxGeometry x="50" y="370" width="80" height="80" as="geometry"/>
                </mxCell>
                <mxCell id="13" value="" style="edgeStyle=none;html=1;rounded=1;sketch=1;curveFitting=1;jiggle=2;strokeColor=#000033;" edge="1" parent="1" source="7" target="12">
                    <mxGeometry relative="1" as="geometry"/>
                </mxCell>
                <mxCell id="7" value="dd" style="ellipse;whiteSpace=wrap;html=1;aspect=fixed;rounded=1;sketch=1;curveFitting=1;jiggle=2;fillColor=#FFFFFF;strokeColor=#000033;fontColor=#000033;" vertex="1" parent="1">
                    <mxGeometry x="260" y="370" width="80" height="80" as="geometry"/>
                </mxCell>
                <mxCell id="15" value="" style="edgeStyle=none;html=1;rounded=1;sketch=1;curveFitting=1;jiggle=2;strokeColor=#000033;" edge="1" parent="1" source="8" target="14">
                    <mxGeometry relative="1" as="geometry"/>
                </mxCell>
                <mxCell id="8" value="dt" style="ellipse;whiteSpace=wrap;html=1;aspect=fixed;rounded=1;sketch=1;curveFitting=1;jiggle=2;fillColor=#FFFFFF;strokeColor=#000033;fontColor=#000033;" vertex="1" parent="1">
                    <mxGeometry x="460" y="370" width="80" height="80" as="geometry"/>
                </mxCell>
                <mxCell id="17" value="" style="edgeStyle=none;html=1;rounded=1;sketch=1;curveFitting=1;jiggle=2;strokeColor=#000033;" edge="1" parent="1" source="9" target="16">
                    <mxGeometry relative="1" as="geometry"/>
                </mxCell>
                <mxCell id="9" value="dd" style="ellipse;whiteSpace=wrap;html=1;aspect=fixed;rounded=1;sketch=1;curveFitting=1;jiggle=2;fillColor=#FFFFFF;strokeColor=#000033;fontColor=#000033;" vertex="1" parent="1">
                    <mxGeometry x="680" y="370" width="80" height="80" as="geometry"/>
                </mxCell>
                <mxCell id="10" value="Lácteo" style="rounded=1;whiteSpace=wrap;html=1;sketch=1;curveFitting=1;jiggle=2;fillColor=#FFFFFF;strokeColor=#000033;fontColor=#000033;" vertex="1" parent="1">
                    <mxGeometry x="30" y="525" width="120" height="60" as="geometry"/>
                </mxCell>
                <mxCell id="12" value="Leche" style="whiteSpace=wrap;html=1;rounded=1;sketch=1;curveFitting=1;jiggle=2;fillColor=#FFFFFF;strokeColor=#000033;fontColor=#000033;" vertex="1" parent="1">
                    <mxGeometry x="230" y="525" width="120" height="60" as="geometry"/>
                </mxCell>
                <mxCell id="14" value="Hidrato" style="whiteSpace=wrap;html=1;rounded=1;sketch=1;curveFitting=1;jiggle=2;fillColor=#FFFFFF;strokeColor=#000033;fontColor=#000033;" vertex="1" parent="1">
                    <mxGeometry x="440" y="525" width="120" height="60" as="geometry"/>
                </mxCell>
                <mxCell id="16" value="Pan" style="whiteSpace=wrap;html=1;rounded=1;sketch=1;curveFitting=1;jiggle=2;fillColor=#FFFFFF;strokeColor=#000033;fontColor=#000033;" vertex="1" parent="1">
                    <mxGeometry x="660" y="525" width="120" height="60" as="geometry"/>
                </mxCell>
            </root>
        </mxGraphModel>
    </diagram>
</mxfile>